<svg width="16" height="16" viewBox="0 0 16 16" fill="none" xmlns="http://www.w3.org/2000/svg">
<path d="M0.799805 3.04989C0.799805 2.05031 1.61013 1.23999 2.60971 1.23999H13.3899C14.3895 1.23999 15.1998 2.05031 15.1998 3.04989V3.04989C15.1998 3.73755 14.9389 4.39958 14.4697 4.90229L10.6977 8.94368C10.352 9.31402 10.1598 9.80173 10.1598 10.3083V12.862C10.1598 13.2407 9.9458 13.587 9.60702 13.7564L7.28702 14.9164C6.62212 15.2488 5.8398 14.7653 5.8398 14.022V10.3083C5.8398 9.80173 5.64757 9.31402 5.30191 8.94368L1.52995 4.90229C1.06075 4.39958 0.799805 3.73755 0.799805 3.04989V3.04989Z" stroke="#F9FAFB"/>
</svg>
